<svg xmlns="http://www.w3.org/2000/svg" viewBox="0 0 327.47 452.35"><defs><style>.cls-1{fill:none;stroke:#0f4b8b;stroke-miterlimit:10;stroke-width:12px;}</style></defs><title>Ativo 10</title><g id="Camada_2" data-name="Camada 2"><g id="Layer_1" data-name="Layer 1"><path class="cls-1" d="M201.52,6a44.33,44.33,0,1,1-44.34,44.32A44.32,44.32,0,0,1,201.52,6Z"/><path class="cls-1" d="M320.38,114.79a10.09,10.09,0,0,0-13.6-4.53l-50.37,25.18a10.11,10.11,0,0,0-4.52,13.61,10.6,10.6,0,0,0,9.06,5.54,14.61,14.61,0,0,0,4.52-1l50.38-25.18A10.11,10.11,0,0,0,320.38,114.79Z"/><path class="cls-1" d="M273,159.63,223.67,184.3l-7,3.53L187.41,129.4l-12.08-24.17a20.1,20.1,0,0,0-18.15-11.09H132c-19.14,0-35.27,14.11-37.78,33.75L81.64,241.22v1.51L70.57,332.89,16.16,376.21c-11.08,8.56-13.61,24.68-5,35.76a24.75,24.75,0,0,0,19.65,9.57A25.64,25.64,0,0,0,46.38,416l63-50.37A24,24,0,0,0,118.41,349L127,282,169.29,341V420c0,13.09,9.56,24.68,22.65,26.19A25.3,25.3,0,0,0,219.65,421V332.89a6.22,6.22,0,0,0-.52-3v-2c0-1-.5-1.52-.5-2.52s-.5-1.51-1-2.52c-.5-.5-.5-1-1-1.51a10.22,10.22,0,0,0-1.52-2.52v-.51L158.2,238.7l4.52-40.79-19.64-39.29a5.87,5.87,0,0,1,2.52-8.06h0a5.87,5.87,0,0,1,8.07,2.52l35.77,71c.5,1.51,1.5,2.52,2.5,4,4,4.53,9.58,7.56,15.62,7.56a19.78,19.78,0,0,0,9.07-2l75.55-37.78c10.07-5,14.09-17.63,8.56-28.21C295.2,157.61,282.6,155.09,273,159.63Z"/></g></g></svg>