<svg xmlns="http://www.w3.org/2000/svg" viewBox="0 0 251.36 251.12"><defs><style>.cls-1{fill:none;stroke:#004f9f;stroke-miterlimit:10;stroke-width:10px;}</style></defs><title>Ativo 9</title><g id="Camada_2" data-name="Camada 2"><g id="Layer_1" data-name="Layer 1"><path class="cls-1" d="M111.71,99.13a28.59,28.59,0,0,1,12.48,3.06L140,85.7a46.44,46.44,0,0,0-28.27-9,62.43,62.43,0,1,0,62.42,62.42,47.92,47.92,0,0,0-8.95-28.27l-16.49,15.79a27.83,27.83,0,0,1,3.07,12.48,40.05,40.05,0,1,1-40-40Zm71.14-7.31a92.33,92.33,0,0,1,13.66,47.35A84.57,84.57,0,1,1,112,54.6c15.78,0,33.68,4.95,47.34,13.67l15.55-16a111,111,0,0,0-62.89-20A106.95,106.95,0,1,0,218.89,139.17c0-21-6.36-44-20-62.89ZM119,122.92a15.45,15.45,0,0,0-7.06-1.65,17.9,17.9,0,1,0,17.9,17.9,18.1,18.1,0,0,0-1.41-7.07l68.31-68.31,18.14-1.88L240.8,35.76,219.13,32.7l-3.3-22.15L189.92,36.47,188,54.37Z"/></g></g></svg>