<svg xmlns="http://www.w3.org/2000/svg" viewBox="0 0 150.28 150.28"><defs><style>.cls-1{fill:#004f9f;stroke:#004f9f;stroke-miterlimit:10;}</style></defs><title>Ativo 1</title><g id="Camada_2" data-name="Camada 2"><g id="Layer_1" data-name="Layer 1"><path class="cls-1" d="M149.78,138.3a11.65,11.65,0,0,1-11.48,11.48,10.68,10.68,0,0,1-8.08-3.41L99.45,115.69a61.46,61.46,0,0,1-35.79,11.12,62,62,0,0,1-24.54-5A61.83,61.83,0,0,1,5.48,88.19a62.93,62.93,0,0,1,0-49.07A61.91,61.91,0,0,1,39.12,5.48a62.93,62.93,0,0,1,49.07,0,61.83,61.83,0,0,1,33.64,33.64,62,62,0,0,1,5,24.54,61.46,61.46,0,0,1-11.12,35.79l30.77,30.77A11,11,0,0,1,149.78,138.3ZM92.05,92.05a38.74,38.74,0,0,0,11.8-28.39,38.74,38.74,0,0,0-11.8-28.4A38.73,38.73,0,0,0,63.66,23.47a38.73,38.73,0,0,0-28.4,11.79,38.73,38.73,0,0,0-11.79,28.4A38.73,38.73,0,0,0,35.26,92.05a38.74,38.74,0,0,0,28.4,11.8A38.74,38.74,0,0,0,92.05,92.05Z"/></g></g></svg>