<svg xmlns="http://www.w3.org/2000/svg" viewBox="0 0 161.4 152.97"><defs><style>.cls-1{fill:#fff;}</style></defs><title>Ativo 6</title><g id="Camada_2" data-name="Camada 2"><g id="Layer_1" data-name="Layer 1"><path class="cls-1" d="M4.77,145.1c14.71-8.23,23.05-16.72,27.87-29.44a71.9,71.9,0,0,1-3.5-7c-1-.47-2-.95-3.06-1.45H11a11,11,0,0,1-11-11V73.82A11,11,0,0,1,10.07,62.89C17.4,24.19,46.25,0,80.82,0s63.42,24.2,70.74,62.91a11,11,0,0,1,9.84,10.91V96.21a11,11,0,0,1-11,11H133.1c-.8,2-1.68,3.88-2.63,5.74,4.64,14.27,13.09,23.37,28.85,32.18-21.22,9.94-41.63,12-60.29-2.8a50.43,50.43,0,0,1-34.77.62C45.81,157,25.68,154.9,4.77,145.1ZM133.4,78.93a67.72,67.72,0,0,0-.7-9.81c-11.32-3-31.18-11.09-36.95-18.61-3.14,9.26-44,19.84-67.23,22q-.29,3.12-.29,6.39a69.74,69.74,0,0,0,3.32,21.37c11.32,5.35,22.28,9.16,35.56,10.17,2.39-2.28,6.57-3.8,11.32-3.8,7.43,0,13.45,3.7,13.45,8.26s-6,8.26-13.45,8.26c-5,0-9.37-1.68-11.69-4.16a99,99,0,0,1-30.21-7.19C45.88,128.76,62.22,140,80.82,140,109.84,140,133.4,112.63,133.4,78.93Zm-82,4.33A7.63,7.63,0,1,1,59,90.89,7.63,7.63,0,0,1,51.38,83.26Zm43,0A7.63,7.63,0,1,1,102,90.89,7.63,7.63,0,0,1,94.4,83.26ZM80.81,14.34c27.49,0,50.53,18.58,56.49,48.51h5.21c-7-34.2-32.09-55.19-61.69-55.19s-54.66,21-61.71,55.19h5.21C30.28,32.92,53.32,14.34,80.81,14.34Z"/></g></g></svg>