<svg xmlns="http://www.w3.org/2000/svg" viewBox="0 0 37.23 55.65"><defs><style>.cls-1{fill:#004d90;}</style></defs><title>Ativo 6</title><g id="Camada_2" data-name="Camada 2"><g id="Camada_1-2" data-name="Camada 1"><path class="cls-1" d="M13.65,17V9.53A16.85,16.85,0,0,0,12,2.25C11.6,1.35,10.76-.14,9.84,0a8,8,0,0,0-2.5,1.87A12.68,12.68,0,0,0,4,9.49V17C1.15,17.74.24,19.12,0,20.31a.65.65,0,0,0,0,.2V51.23c0,2,1.52,4.42,8.77,4.42,5.58,0,8.78-1.61,8.77-4.35l.07-.58V20.92a1.94,1.94,0,0,0,0-.24.47.47,0,0,0,0-.17C17.47,19.24,16.63,17.74,13.65,17ZM8.05,2.6A12.28,12.28,0,0,1,10,1a4.31,4.31,0,0,1,1.14,1.65,16.35,16.35,0,0,1,1.55,6.83V21.38a9.18,9.18,0,0,1-3.85.68A9.07,9.07,0,0,1,5,21.41V9.52A11.84,11.84,0,0,1,8.05,2.6ZM4,18v1.8a.49.49,0,0,0-.43-.25.5.5,0,0,0-.51.5c0,1.37,1,3,5.76,3,3.69,0,5.81-1.08,5.81-3a.5.5,0,0,0-.51-.5.49.49,0,0,0-.44.27V18c1.95.56,3,1.52,3,2.84v0c-.18,2-3.07,3.16-7.83,3.16C5.9,24,1.12,23.61,1,20.72,1.11,19.24,2.57,18.45,4,18Zm12.56,33.2c0,2.14-2.9,3.41-7.76,3.41C5.87,54.64,1,54.2,1,51.23V23.07c1.14,1.12,3.42,2,7.76,2,3.78,0,6.47-.72,7.83-2V50.66Z"/><path class="cls-1" d="M7,9.41a1.92,1.92,0,0,0,.84.19,2.66,2.66,0,0,0,2.21-1.43c1.47-2.37.58-5.5.54-5.63A.51.51,0,0,0,10,2.19a.5.5,0,0,0-.34.63s.8,2.84-.43,4.82c-.57.91-1.28,1.09-1.73.86s-.52-.7-.29-1.26a.51.51,0,0,0-.28-.66.5.5,0,0,0-.66.27A1.93,1.93,0,0,0,7,9.41Z"/><path class="cls-1" d="M10.67,11.44v5.45a.5.5,0,0,0,.5.5.51.51,0,0,0,.51-.5V11.44a.5.5,0,0,0-.51-.5A.5.5,0,0,0,10.67,11.44Z"/><path class="cls-1" d="M11.17,18.24a.5.5,0,0,0-.5.51V19a.5.5,0,0,0,.5.51.51.51,0,0,0,.51-.51v-.22A.51.51,0,0,0,11.17,18.24Z"/><path class="cls-1" d="M28.45,27c-5.63,0-8.85,1.6-8.85,4.38h0V51.23c0,2,1.52,4.42,8.77,4.42,5.57,0,8.77-1.61,8.77-4.35l.07-.58V37.58c0-.08,0-.15,0-.23s0-.05,0-.08V35.13c0-.07,0-.15,0-.23s0,0,0-.08v-3c0-.08,0-.15,0-.23a.14.14,0,0,0,0-.07.24.24,0,0,0,0-.08C37.23,29.41,35.7,27,28.45,27Zm7.68,24.23c0,2.14-2.9,3.41-7.76,3.41-2.9,0-7.76-.44-7.76-3.41V39.74c1.13,1.12,3.41,2,7.76,2,3.77,0,6.46-.72,7.83-2v11ZM28.37,39.28c3.77,0,6.46-.72,7.83-2v.28c-.16,2-3.06,3.18-7.83,3.18-2.9,0-7.76-.44-7.76-3.4v0C21.74,38.41,24,39.28,28.37,39.28Zm-7.76-4.42V34c1.13,1.13,3.41,2,7.76,2,3.77,0,6.46-.72,7.83-2v1.17c-.17,2-3.06,3.18-7.83,3.18C25.47,38.26,20.61,37.82,20.61,34.86Zm15.6-3.29c0,.05,0,.1,0,.16h0v0c-.18,2-3.07,3.17-7.83,3.17-2.9,0-7.76-.44-7.76-3.4V31.4h0c0-2.11,2.93-3.36,7.84-3.36,2.9,0,7.76.44,7.76,3.4a.24.24,0,0,0,0,.08A.14.14,0,0,0,36.21,31.57Z"/><path class="cls-1" d="M28.51,28.66c-2.86,0-6.26.43-6.26,2.45v.31c0,1.64,2.08,2.47,6.2,2.47,2.86,0,6.26-.43,6.26-2.45v-.31C34.71,29.49,32.62,28.66,28.51,28.66Zm5.19,2.78c0,.72-1.63,1.44-5.25,1.44-3.2,0-5.19-.56-5.19-1.46v-.31c0-.71,1.62-1.43,5.25-1.43,3.2,0,5.19.55,5.19,1.45Z"/></g></g></svg>