<svg xmlns="http://www.w3.org/2000/svg" viewBox="0 0 86.5 47.3"><defs><style>.cls-1{fill:#004d90;}</style></defs><title>Ativo 9</title><g id="Camada_2" data-name="Camada 2"><g id="Camada_1-2" data-name="Camada 1"><path class="cls-1" d="M82.8,21.4H79.4V17.8A3.8,3.8,0,0,0,75.6,14H55.4a4.22,4.22,0,0,0-2.5.9,3.66,3.66,0,0,0-2.5-.9H30.2a3.8,3.8,0,0,0-3.8,3.8v3.6H23.1a3.8,3.8,0,0,0-3.8,3.8V41H28v6.3h4.7l2-6.3H71l2,6.2h4.8V41h8.7V25.2A3.65,3.65,0,0,0,82.8,21.4ZM55.4,16.6H75.6a1.16,1.16,0,0,1,1.2,1.2v4.4a3.84,3.84,0,0,0-1.5,3v5.9H54.2V17.8A1.16,1.16,0,0,1,55.4,16.6Zm-25.2,0H50.4a1.16,1.16,0,0,1,1.2,1.2V31.1h-21V25.2A3.84,3.84,0,0,0,29,22.1V17.8A1.16,1.16,0,0,1,30.2,16.6ZM21.9,38.4V25.2A1.16,1.16,0,0,1,23.1,24h3.7A1.22,1.22,0,0,1,28,25.2V38.4H21.9Zm9,6.3h-.3V41.1h1.5Zm-.3-6.3V33.7H75.3v4.7H30.6Zm44.7,6.2h-.4L73.7,41h1.6ZM84,38.4H77.9V25.2A1.16,1.16,0,0,1,79.1,24h3.7A1.16,1.16,0,0,1,84,25.2Z"/><path class="cls-1" d="M13,14H23.6L18.9,0H4.5L0,14H10.5V44.7H5.6v2.6H18V44.7H13.1V14ZM6.3,2.6H17.1L20,11.4H3.5Z"/></g></g></svg>