<svg xmlns="http://www.w3.org/2000/svg" xmlns:xlink="http://www.w3.org/1999/xlink" viewBox="0 0 113.94 63.22"><defs><style>.cls-1{filter:url(#luminosity-noclip);}.cls-2{mask:url(#mask);}.cls-3{fill:#004d90;}.cls-4{fill:none;stroke:#004d90;stroke-miterlimit:10;stroke-width:2px;}</style><filter id="luminosity-noclip" x="0" y="0" width="176.5" height="85.68" filterUnits="userSpaceOnUse" color-interpolation-filters="sRGB"><feFlood flood-color="#fff" result="bg"/><feBlend in="SourceGraphic" in2="bg"/></filter><mask id="mask" x="0" y="0" width="176.5" height="85.68" maskUnits="userSpaceOnUse"><rect class="cls-1" x="63" y="6.18" width="113.5" height="79.5"/></mask></defs><title>Ativo 1</title><g id="Camada_2" data-name="Camada 2"><g id="Camada_1-2" data-name="Camada 1"><g class="cls-2"><path class="cls-3" d="M90,48V2a2,2,0,0,0-2-2H2A2,2,0,0,0,0,2V48a2,2,0,0,0,2,2H41a2,2,0,0,1,2,2v3a2,2,0,0,1-2,2H32a2,2,0,0,0-2,2h0a2,2,0,0,0,2,2H57.9a2,2,0,0,0,2-2h0a2,2,0,0,0-2-2H49a2,2,0,0,1-2-2V52a2,2,0,0,1,2-2H88A2,2,0,0,0,90,48ZM3,45V5A2,2,0,0,1,5,3H85a2,2,0,0,1,2,2V45a2,2,0,0,1-2,2H5A2,2,0,0,1,3,45Z"/></g><path class="cls-4" d="M90.29,28.39a12.37,12.37,0,1,0,12.36,12.36A12.38,12.38,0,0,0,90.29,28.39Zm0,23.26a10.9,10.9,0,1,1,10.9-10.9A10.9,10.9,0,0,1,90.29,51.65Z"/><path class="cls-4" d="M67.82,22.81V58.23h44.94V22.81ZM90.29,54.54A13.8,13.8,0,0,1,76.87,44V44A1.43,1.43,0,1,1,74,44V37.65a1.43,1.43,0,0,1,2.85-.07,13.79,13.79,0,1,1,13.42,17Z"/><path class="cls-4" d="M71.84,62.22h36.9a4,4,0,0,0,3.74-2.56H68.1A4,4,0,0,0,71.84,62.22Z"/><path class="cls-4" d="M108.74,10.73H71.84a4,4,0,0,0-4,4V20h44.94v-5.2A4,4,0,0,0,108.74,10.73Zm-32.62,6H71.76a1.43,1.43,0,1,1,0-2.85h4.36a1.43,1.43,0,0,1,0,2.85Zm22.13.16a1.68,1.68,0,1,1,1.68-1.68A1.68,1.68,0,0,1,98.25,16.93Zm5.2,0a1.68,1.68,0,1,1,1.67-1.68A1.68,1.68,0,0,1,103.45,16.93Zm5.18,0a1.68,1.68,0,1,1,1.68-1.68A1.68,1.68,0,0,1,108.63,16.93Z"/></g></g></svg>