<svg xmlns="http://www.w3.org/2000/svg" viewBox="0 0 100 60.21"><defs><style>.cls-1{fill:#004d90;}</style></defs><title>Ativo 10</title><g id="Camada_2" data-name="Camada 2"><g id="Camada_1-2" data-name="Camada 1"><polygon class="cls-1" points="18.05 40.15 24.19 29.31 29.62 5.52 29.62 5.52 31.59 7.99 26.53 30.23 20.22 41.38 18.05 40.15"/><path class="cls-1" d="M19.81,18a6.27,6.27,0,0,1-4-5.82h0a6.09,6.09,0,0,1,3.07-5.68h0a10.93,10.93,0,0,1,4.11-1h0a4.74,4.74,0,0,1,.51,0h7.77L31.59,8H23a6.43,6.43,0,0,0-2.9.67h0c-1,.59-1.75,1.38-1.79,3.51h0a3.41,3.41,0,0,0,1.56,3h0a7.82,7.82,0,0,0,3,1.17h0a5.87,5.87,0,0,0,.87.12h0l-.15,2.49A11.71,11.71,0,0,1,19.81,18Z"/><path class="cls-1" d="M27,18.61l1.77-1.75L53.18,44.2l25.48-4.1-17-24.65h-33V13H63l20,29L52.31,46.87,27,18.61Zm1.71-3.16h0Z"/><polygon class="cls-1" points="51.56 45.17 64.58 2.48 66.96 3.21 53.94 45.9 51.56 45.17"/><path class="cls-1" d="M0,41a19.19,19.19,0,0,1,19.19-19.2h0A19.2,19.2,0,0,1,38.38,41h0A19.19,19.19,0,0,1,19.19,60.21h0A19.19,19.19,0,0,1,0,41Zm2.49,0a16.73,16.73,0,0,0,16.7,16.7h0A16.72,16.72,0,0,0,35.89,41h0a16.73,16.73,0,0,0-16.7-16.71h0A16.73,16.73,0,0,0,2.49,41Z"/><circle class="cls-1" cx="19.19" cy="41.03" r="2.7"/><path class="cls-1" d="M61.62,41a19.2,19.2,0,0,1,19.19-19.2h0A19.2,19.2,0,0,1,100,41h0A19.19,19.19,0,0,1,80.81,60.21h0A19.19,19.19,0,0,1,61.62,41Zm2.49,0a16.71,16.71,0,0,0,16.7,16.69h0A16.71,16.71,0,0,0,97.51,41h0a16.73,16.73,0,0,0-16.7-16.71h0A16.73,16.73,0,0,0,64.11,41Z"/><circle class="cls-1" cx="80.81" cy="41.03" r="2.7"/><circle class="cls-1" cx="52.75" cy="44.71" r="2.7"/><polygon class="cls-1" points="49.88 36.7 51.71 36.35 54.93 53.26 53.09 53.61 49.88 36.7"/><polygon class="cls-1" points="48.41 37.2 48.41 35.33 53.08 35.33 53.08 37.2 48.41 37.2"/><polygon class="cls-1" points="51.52 53.81 51.52 51.94 56.19 51.94 56.19 53.81 51.52 53.81"/><path class="cls-1" d="M59.17,1.14s-1.62.33-1.62,1.3A1.22,1.22,0,0,0,59,3.57a42.38,42.38,0,0,1,8.41.48c2.59.65,3.88,1.14,4.69-.16s1-4-2.43-3.88S59.17,1.14,59.17,1.14Z"/></g></g></svg>