<svg xmlns="http://www.w3.org/2000/svg" xmlns:xlink="http://www.w3.org/1999/xlink" viewBox="0 0 43.42 37.43"><defs><style>.cls-1{filter:url(#luminosity-noclip);}.cls-2{mask:url(#mask);}.cls-3{fill:#004d90;}</style><filter id="luminosity-noclip" x="0" y="0" width="50.37" height="41.62" filterUnits="userSpaceOnUse" color-interpolation-filters="sRGB"><feFlood flood-color="#fff" result="bg"/><feBlend in="SourceGraphic" in2="bg"/></filter><mask id="mask" x="0" y="0" width="50.37" height="41.62" maskUnits="userSpaceOnUse"><polygon class="cls-1" points="50.37 15.14 22.04 15.14 26.7 41.62 46.7 41.62 50.37 15.14"/></mask></defs><title>Ativo 7</title><g id="Camada_2" data-name="Camada 2"><g id="Camada_1-2" data-name="Camada 1"><g class="cls-2"><path class="cls-3" d="M18.45,36.9A18.45,18.45,0,1,1,36.9,18.45,18.48,18.48,0,0,1,18.45,36.9Zm0-36.13A17.68,17.68,0,1,0,36.13,18.45,17.7,17.7,0,0,0,18.45.77Z"/><path class="cls-3" d="M18.45,31.71A13.26,13.26,0,1,1,31.71,18.45,13.28,13.28,0,0,1,18.45,31.71Zm0-26.13A12.87,12.87,0,1,0,31.32,18.45,12.88,12.88,0,0,0,18.45,5.58Z"/></g><path class="cls-3" d="M43.22,17.19a1,1,0,0,0-.78-.3H26.06a1,1,0,0,0-.73.3.91.91,0,0,0-.19.78,1.11,1.11,0,0,0,.91,1l2.29,18.35s.07.1.11.12H40.06l.15-.12L41.62,26,42.5,19a1.12,1.12,0,0,0,.91-1A.94.94,0,0,0,43.22,17.19Zm-1.9,6L41,25.68,39.63,36.79H28.92L26.7,19H41.85Zm1.46-5.36a.49.49,0,0,1-.54.47h0l-.3,0H26.43l-.14,0a.48.48,0,0,1-.52-.47c0-.09,0-.21,0-.27s.17-.08.3-.09H42.48a.33.33,0,0,1,.26.09A.4.4,0,0,1,42.78,17.88Z"/></g></g></svg>