<svg xmlns="http://www.w3.org/2000/svg" viewBox="0 0 45.64 44.17"><defs><style>.cls-1{fill:#004d90;}</style></defs><title>Ativo 3</title><g id="Camada_2" data-name="Camada 2"><g id="Camada_1-2" data-name="Camada 1"><path class="cls-1" d="M45.4,10.41a.74.74,0,0,0,.09-1c-.62-.77-2.44-2.86-5.53-6.19S32.67,0,29.92,0h-.39a.74.74,0,0,0-.7.62c-.36,2.52-2.95,4.41-6,4.41s-5.64-1.89-6-4.41a.73.73,0,0,0-.7-.62h-.38C13,0,8.8-.13,5.68,3.23S.77,8.65.16,9.42a.73.73,0,0,0,.08,1L9.9,19a67.47,67.47,0,0,1-.34,8.15c-.3,3.6-.68,8.08-.68,16.31a.73.73,0,0,0,.72.72H36a.72.72,0,0,0,.72-.72c0-8.23-.38-12.71-.68-16.31A67.52,67.52,0,0,1,35.75,19ZM10.32,42.73c0-7.72.38-12,.67-15.48.45-5.43.73-8.7-.68-19.42A.72.72,0,1,0,8.89,8c.5,3.79.78,6.63.92,9l-8.1-7.2c.84-1,2.5-2.87,5-5.58s6.14-2.81,8.78-2.76c.76,2.91,3.78,5,7.31,5s6.56-2.13,7.31-5c2.63-.06,6.16-.06,8.78,2.76s4.18,4.58,5,5.58L35.83,17c.14-2.34.42-5.18.92-9a.72.72,0,1,0-1.42-.19c-1.41,10.72-1.13,14-.68,19.42.29,3.47.65,7.76.67,15.48Z"/></g></g></svg>