<svg xmlns="http://www.w3.org/2000/svg" viewBox="0 0 51.01 58.77"><defs><style>.cls-1{fill:none;stroke:#004d90;stroke-miterlimit:10;}</style></defs><title>Ativo 5</title><g id="Camada_2" data-name="Camada 2"><g id="Camada_1-2" data-name="Camada 1"><path class="cls-1" d="M25.66,9.79l1.25-2.25a15.1,15.1,0,0,1,3.67-4.91c2.66-2.08,5.6-2.81,8.83-1.38a5.91,5.91,0,0,1,3.49,4c1.15,3.9-1.51,7.35-4.5,9.17-.29.17-.94.61-1.22.8,0,.08.45-.08.49,0H49.59c.9,0,.92,0,.92.92v9.59c0,.92,0,1-1,1-7.15,0-14.31,0-21.47,0-.68,0-.89-.22-.89-.91,0-3.29,0-6.58,0-9.87,0-.59-.19-.83-.77-.82s-1,0-1.5,0-.68.18-.68.68c0,3.32,0,6.63,0,10,0,.91-.05,1-1,1H1.56c-1,0-1,0-1-1,0-3.19,0-6.39,0-9.58,0-.88,0-.91.94-.92H12a2.93,2.93,0,0,0,1.23-.09c-.16-.13-.8-.39-1-.5a9.1,9.1,0,0,1-3.75-4.26,7.55,7.55,0,0,1,2.19-8.23A7.07,7.07,0,0,1,18.11,1.1a11.8,11.8,0,0,1,6.64,6.37C25.07,8.16,25.31,8.89,25.66,9.79Zm-2.22,4.47a42.14,42.14,0,0,0-3.17-7c-.91-1.76-1.93-3-3.57-3.27-2.31-.35-2.84,0-4,1a4.36,4.36,0,0,0-.93,4.23A5.17,5.17,0,0,0,14.55,12C16.52,13,22.57,14.14,23.44,14.26Zm4.25.19a59.29,59.29,0,0,0,6.93-2,7.53,7.53,0,0,0,4.32-3.4,3.49,3.49,0,0,0,0-3.73,3.26,3.26,0,0,0-3.25-1.51,5.53,5.53,0,0,0-4.17,2.53A66.85,66.85,0,0,0,27.69,14.45Z"/><path class="cls-1" d="M4,29.19H24.63V57.27c0,1,0,1-1,1-6.26,0-12.51,0-18.76,0-.74,0-.91-.23-.9-.94Q4,43.77,4,30.2Z"/><path class="cls-1" d="M47.52,29.19s0,19,0,28.08c0,.95,0,1-1,1H27.66c-.56,0-.74-.18-.74-.74q0-13.52,0-27.05c0-.2,0-1.28,0-1.28Z"/></g></g></svg>