<svg xmlns="http://www.w3.org/2000/svg" viewBox="0 0 33 29.01"><defs><style>.cls-1{fill:none;stroke:#004d90;stroke-miterlimit:10;}</style></defs><title>Ativo 4</title><g id="Camada_2" data-name="Camada 2"><g id="Camada_1-2" data-name="Camada 1"><path class="cls-1" d="M29.87,15.85,23.74,22h0l-6,6a1.75,1.75,0,0,1-2.47,0l-6-6h0L3.13,15.85A9,9,0,0,1,15.84,3.13l.18.18a.7.7,0,0,0,.94,0l.2-.21A9,9,0,1,1,29.87,15.85ZM9.51,4.51a5,5,0,0,0-5,5,1,1,0,0,0,2,0h0a3,3,0,0,1,2.65-3c.11,0,.22,0,.33,0h0a1,1,0,0,0,0-2Z"/></g></g></svg>